<?xml version="1.0" standalone="no"?>
<!DOCTYPE svg PUBLIC "-//W3C//DTD SVG 20010904//EN"
 "http://www.w3.org/TR/2001/REC-SVG-20010904/DTD/svg10.dtd">
<svg version="1.0" xmlns="http://www.w3.org/2000/svg"
 width="256.000000pt" height="256.000000pt" viewBox="0 0 256.000000 256.000000"
 preserveAspectRatio="xMidYMid meet">
<metadata>
Created by potrace 1.14, written by Peter Selinger 2001-2017
</metadata>
<g transform="translate(0.000000,256.000000) scale(0.100000,-0.100000)"
fill="#000000" stroke="none">
<path d="M193 2199 c-10 -4 -27 -16 -38 -28 -17 -20 -19 -35 -17 -154 1 -73 5
-140 8 -151 4 -10 2 -16 -3 -13 -5 4 -10 0 -10 -8 0 -8 4 -15 8 -15 16 0 -3
-27 -27 -41 -14 -7 -33 -27 -41 -43 -17 -33 -17 -38 -8 -291 10 -284 16 -479
15 -505 -2 -44 -2 -85 0 -90 7 -17 4 -297 -3 -308 -6 -7 -6 -12 0 -12 5 0 8
-43 7 -95 -2 -90 0 -96 22 -114 17 -13 20 -21 12 -24 -7 -3 2 -4 20 -2 17 2
32 0 32 -5 0 -4 7 -11 16 -14 13 -5 14 -3 6 7 -8 10 -6 13 8 13 10 0 16 -4 14
-8 -5 -7 10 -12 29 -9 4 0 7 -4 7 -10 0 -5 5 -7 11 -3 14 9 -11 25 -26 17 -5
-4 -6 -2 -2 2 21 24 57 0 40 -27 -4 -7 -1 -8 6 -4 7 5 10 14 7 22 -3 7 0 16 6
20 6 4 8 3 5 -3 -4 -6 0 -14 9 -17 8 -3 12 -2 9 3 -3 5 -1 12 4 15 5 4 13 2
16 -4 5 -8 12 -7 23 2 12 10 14 10 8 1 -4 -8 -2 -13 4 -13 6 0 9 -4 5 -9 -3
-5 0 -13 6 -17 7 -4 9 -3 5 4 -9 15 54 45 69 32 8 -6 16 -5 25 3 7 6 10 8 8 2
-3 -5 0 -16 8 -23 8 -7 14 -8 14 -2 0 5 7 10 16 10 8 0 13 -4 9 -9 -3 -5 0
-13 7 -17 7 -4 10 -4 6 1 -4 4 0 14 10 22 16 14 16 14 -3 8 -17 -5 -18 -4 -7
7 11 11 17 9 33 -11 10 -13 19 -18 19 -12 0 6 5 11 11 11 5 0 8 -4 4 -9 -3 -5
-1 -13 5 -16 6 -4 10 -3 9 2 -4 21 2 43 12 43 5 0 8 -3 6 -7 -12 -20 50 -39
69 -21 3 4 -3 5 -15 3 -14 -3 -19 0 -15 7 5 8 1 9 -12 4 -15 -6 -16 -5 -7 5 9
9 16 9 26 1 10 -9 17 -8 27 1 7 6 10 8 8 2 -3 -5 0 -16 8 -23 8 -7 14 -8 14
-2 0 5 7 10 16 10 8 0 13 -4 9 -9 -3 -5 0 -13 7 -17 7 -4 10 -4 6 1 -4 4 0 14
10 22 16 14 16 14 -3 8 -17 -5 -18 -4 -7 7 11 11 17 9 33 -11 10 -13 19 -18
19 -12 0 6 5 11 11 11 5 0 8 -4 4 -9 -3 -5 -1 -13 5 -16 6 -4 10 -3 9 2 -4 21
2 43 12 43 5 0 8 -3 6 -7 -9 -15 18 -28 55 -28 20 0 34 3 32 7 -3 5 -16 6 -30
4 -16 -3 -22 -1 -18 6 5 8 1 9 -12 4 -15 -6 -17 -5 -6 5 9 10 15 10 24 1 8 -8
17 -8 31 -1 12 7 17 7 13 1 -3 -5 1 -12 9 -16 8 -3 14 0 12 6 -1 5 6 12 16 13
9 2 17 0 17 -4 0 -7 44 -31 55 -31 3 0 5 5 5 11 0 5 -4 8 -9 5 -4 -3 -16 0
-26 8 -15 11 -16 13 -1 13 9 0 16 -5 16 -10 0 -5 8 -3 17 4 9 8 14 9 10 3 -4
-6 5 -16 21 -23 24 -10 25 -10 9 3 -16 12 -16 14 -2 20 9 3 14 2 11 -3 -3 -5
1 -11 9 -15 8 -3 14 0 12 6 -1 5 6 12 16 13 9 2 17 0 17 -4 0 -7 44 -31 55
-31 3 0 5 5 5 11 0 5 -4 8 -9 5 -4 -3 -16 0 -26 8 -15 11 -16 13 -1 13 9 0 16
-5 16 -10 0 -5 8 -3 17 4 9 8 14 9 10 3 -4 -7 0 -15 9 -18 8 -3 12 -2 9 3 -3
5 -1 12 4 15 5 4 13 2 16 -4 5 -8 12 -7 23 2 12 10 14 10 8 1 -4 -8 -2 -13 4
-13 6 0 9 -4 5 -9 -3 -5 0 -13 6 -17 7 -4 9 -3 5 4 -9 15 54 45 69 32 8 -6 16
-5 25 3 7 6 10 8 8 2 -3 -5 0 -16 8 -23 8 -7 14 -8 14 -2 0 5 7 10 16 10 8 0
13 -4 9 -9 -3 -5 0 -13 7 -17 7 -4 10 -4 6 1 -4 4 0 14 10 22 16 14 16 14 -3
8 -17 -5 -18 -4 -7 7 11 11 17 9 33 -11 10 -13 19 -18 19 -12 0 6 5 11 11 11
5 0 8 -4 4 -9 -3 -5 -1 -13 5 -16 6 -4 10 -3 9 2 -4 21 2 43 12 43 5 0 8 -3 6
-7 -12 -20 50 -39 69 -21 3 4 -3 5 -15 3 -14 -3 -19 0 -15 7 5 8 1 9 -12 4
-15 -6 -16 -5 -7 5 9 9 16 9 26 1 10 -9 17 -8 27 1 7 6 10 8 8 2 -3 -5 0 -16
8 -23 8 -7 14 -8 14 -2 0 5 7 10 16 10 8 0 13 -4 9 -9 -3 -5 0 -13 7 -17 7 -4
10 -4 6 1 -4 4 0 14 10 22 16 14 16 14 -3 8 -17 -5 -18 -4 -7 7 11 11 17 9 33
-11 10 -13 19 -18 19 -12 0 6 5 11 11 11 5 0 8 -4 4 -9 -3 -5 -1 -13 5 -16 6
-4 10 -3 9 2 -4 21 2 43 12 43 5 0 8 -3 6 -7 -9 -15 18 -28 55 -28 20 0 34 3
32 7 -3 5 -16 6 -30 4 -16 -3 -22 -1 -18 6 5 8 1 9 -12 4 -15 -6 -17 -5 -6 5
9 10 15 10 24 1 8 -8 17 -8 31 -1 12 7 17 7 13 1 -3 -5 1 -12 9 -16 8 -3 14 0
12 6 -1 5 6 12 16 13 9 2 17 0 17 -4 0 -7 44 -31 55 -31 3 0 5 5 5 11 0 5 -4
8 -9 5 -4 -3 -16 0 -26 8 -15 11 -16 13 -1 13 9 0 16 -5 16 -10 0 -5 8 -3 17
4 9 8 14 9 10 3 -4 -6 5 -16 21 -23 24 -10 25 -10 9 3 -16 12 -16 14 -2 20 9
3 14 2 11 -3 -3 -5 1 -11 9 -15 8 -3 14 0 12 6 -1 5 6 12 16 13 9 2 17 0 17
-4 0 -7 44 -31 55 -31 3 0 5 5 5 11 0 5 -4 8 -9 5 -4 -3 -16 0 -26 8 -15 11
-16 13 -1 13 9 0 16 -5 16 -10 0 -5 8 -3 17 4 9 8 14 9 10 3 -4 -7 0 -15 9
-18 8 -3 12 -2 9 3 -3 5 -1 12 4 15 5 4 13 2 16 -4 5 -8 12 -7 23 2 12 10 14
10 8 0 -4 -7 -2 -12 4 -12 6 0 8 -5 4 -13 -5 -8 -2 -8 9 2 14 11 17 11 17 0 0
-12 2 -12 9 0 6 9 11 10 15 2 10 -15 23 -14 29 2 3 8 -1 14 -9 14 -7 0 -10 -5
-7 -10 3 -6 1 -7 -6 -3 -16 10 -5 25 17 21 9 -2 21 -4 25 -4 5 -1 5 -6 2 -12
-4 -6 2 -5 13 2 12 7 18 17 16 21 -3 4 1 8 9 8 25 0 30 47 33 310 2 245 12
725 14 725 2 0 8 220 10 337 1 112 -6 141 -52 193 -12 14 -21 40 -23 68 -3 43
-40 115 -53 103 -3 -3 -10 -1 -17 4 -7 6 -225 10 -576 10 -638 1 -619 -1 -645
74 -7 21 -18 44 -24 50 -12 12 -875 17 -907 5z m217 -1893 c0 -2 -7 -7 -16
-10 -8 -3 -12 -2 -9 4 6 10 25 14 25 6z m120 0 c0 -2 -7 -7 -16 -10 -8 -3 -12
-2 -9 4 6 10 25 14 25 6z m240 0 c0 -2 -7 -7 -16 -10 -8 -3 -12 -2 -9 4 6 10
25 14 25 6z m600 0 c0 -2 -7 -7 -16 -10 -8 -3 -12 -2 -9 4 6 10 25 14 25 6z
m120 0 c0 -2 -7 -7 -16 -10 -8 -3 -12 -2 -9 4 6 10 25 14 25 6z m240 0 c0 -2
-7 -7 -16 -10 -8 -3 -12 -2 -9 4 6 10 25 14 25 6z m600 -4 c0 -5 -7 -9 -15 -9
-8 0 -12 4 -9 9 3 4 9 8 15 8 5 0 9 -4 9 -8z"/>
<path d="M326 287 c3 -10 9 -15 12 -12 3 3 0 11 -7 18 -10 9 -11 8 -5 -6z"/>
<path d="M427 293 c-13 -13 -7 -20 18 -19 13 1 28 6 32 10 4 5 3 6 -4 2 -6 -3
-14 -2 -18 4 -7 12 -19 13 -28 3z"/>
<path d="M1008 278 c3 -13 7 -17 10 -10 2 7 8 10 13 6 5 -3 9 -3 9 0 0 3 -9
10 -19 15 -17 9 -18 8 -13 -11z"/>
<path d="M1168 278 c3 -13 7 -17 10 -10 2 7 8 10 13 6 5 -3 9 -3 9 0 0 3 -9
10 -19 15 -17 9 -18 8 -13 -11z"/>
<path d="M1286 287 c3 -10 9 -15 12 -12 3 3 0 11 -7 18 -10 9 -11 8 -5 -6z"/>
<path d="M1387 293 c-13 -13 -7 -20 18 -19 13 1 28 6 32 10 4 5 3 6 -4 2 -6
-3 -14 -2 -18 4 -7 12 -19 13 -28 3z"/>
<path d="M1968 278 c3 -13 7 -17 10 -10 2 7 8 10 13 6 5 -3 9 -3 9 0 0 3 -9
10 -19 15 -17 9 -18 8 -13 -11z"/>
<path d="M2128 278 c3 -13 7 -17 10 -10 2 7 8 10 13 6 5 -3 9 -3 9 0 0 3 -9
10 -19 15 -17 9 -18 8 -13 -11z"/>
<path d="M2246 287 c3 -10 9 -15 12 -12 3 3 0 11 -7 18 -10 9 -11 8 -5 -6z"/>
</g>
</svg>
